<mxfile host="Electron" modified="2025-04-12T04:58:09.098Z" agent="Mozilla/5.0 (Windows NT 10.0; Win64; x64) AppleWebKit/537.36 (KHTML, like Gecko) draw.io/21.5.0 Chrome/112.0.5615.204 Electron/24.5.1 Safari/537.36" etag="lzSWUNdWdIN-559GRIaG" version="21.5.0" type="device">
  <diagram name="第 1 页" id="nJRzv5rlB3VEnub_vDUY">
    <mxGraphModel dx="1416" dy="818" grid="1" gridSize="10" guides="1" tooltips="1" connect="1" arrows="1" fold="1" page="1" pageScale="1" pageWidth="827" pageHeight="1169" math="0" shadow="0">
      <root>
        <mxCell id="0" />
        <mxCell id="1" parent="0" />
        <mxCell id="sf9vQHTMIL033kYzhAHr-1" value="&lt;font style=&quot;font-size: 16px;&quot;&gt;4&lt;/font&gt;" style="rounded=0;whiteSpace=wrap;html=1;fillColor=#d5e8d4;strokeColor=#82b366;" vertex="1" parent="1">
          <mxGeometry x="595" y="172" width="30" height="30" as="geometry" />
        </mxCell>
        <mxCell id="sf9vQHTMIL033kYzhAHr-2" value="&lt;font style=&quot;font-size: 16px;&quot;&gt;8&lt;/font&gt;" style="rounded=0;whiteSpace=wrap;html=1;fillColor=#ffe6cc;strokeColor=#d79b00;" vertex="1" parent="1">
          <mxGeometry x="475" y="172" width="30" height="30" as="geometry" />
        </mxCell>
        <mxCell id="sf9vQHTMIL033kYzhAHr-3" value="&lt;font style=&quot;font-size: 16px;&quot;&gt;7&lt;/font&gt;" style="rounded=0;whiteSpace=wrap;html=1;fillColor=#ffe6cc;strokeColor=#d79b00;" vertex="1" parent="1">
          <mxGeometry x="505" y="172" width="30" height="30" as="geometry" />
        </mxCell>
        <mxCell id="sf9vQHTMIL033kYzhAHr-4" value="&lt;span style=&quot;font-size: 16px;&quot;&gt;6&lt;/span&gt;" style="rounded=0;whiteSpace=wrap;html=1;fillColor=#ffe6cc;strokeColor=#d79b00;" vertex="1" parent="1">
          <mxGeometry x="535" y="172" width="30" height="30" as="geometry" />
        </mxCell>
        <mxCell id="sf9vQHTMIL033kYzhAHr-5" value="&lt;font style=&quot;font-size: 16px;&quot;&gt;3&lt;/font&gt;" style="rounded=0;whiteSpace=wrap;html=1;fillColor=#d5e8d4;strokeColor=#82b366;" vertex="1" parent="1">
          <mxGeometry x="625" y="172" width="30" height="30" as="geometry" />
        </mxCell>
        <mxCell id="sf9vQHTMIL033kYzhAHr-6" value="&lt;font style=&quot;font-size: 16px;&quot;&gt;1&lt;/font&gt;" style="rounded=0;whiteSpace=wrap;html=1;fillColor=#ffe6cc;strokeColor=#d79b00;" vertex="1" parent="1">
          <mxGeometry x="685" y="172" width="30" height="30" as="geometry" />
        </mxCell>
        <mxCell id="sf9vQHTMIL033kYzhAHr-7" value="&lt;font style=&quot;font-size: 16px;&quot;&gt;5&lt;/font&gt;" style="rounded=0;whiteSpace=wrap;html=1;fillColor=#ffe6cc;strokeColor=#d79b00;" vertex="1" parent="1">
          <mxGeometry x="565" y="172" width="30" height="30" as="geometry" />
        </mxCell>
        <mxCell id="sf9vQHTMIL033kYzhAHr-8" value="&lt;font style=&quot;font-size: 16px;&quot;&gt;12&lt;/font&gt;" style="rounded=0;whiteSpace=wrap;html=1;fillColor=#d5e8d4;strokeColor=#82b366;" vertex="1" parent="1">
          <mxGeometry x="355" y="172" width="30" height="30" as="geometry" />
        </mxCell>
        <mxCell id="sf9vQHTMIL033kYzhAHr-9" value="&lt;span style=&quot;font-size: 16px;&quot;&gt;11&lt;/span&gt;" style="rounded=0;whiteSpace=wrap;html=1;fillColor=#d5e8d4;strokeColor=#82b366;" vertex="1" parent="1">
          <mxGeometry x="385" y="172" width="30" height="30" as="geometry" />
        </mxCell>
        <mxCell id="sf9vQHTMIL033kYzhAHr-10" value="&lt;font style=&quot;font-size: 16px;&quot;&gt;11&lt;/font&gt;" style="rounded=0;whiteSpace=wrap;html=1;fillColor=#d5e8d4;strokeColor=#82b366;" vertex="1" parent="1">
          <mxGeometry x="415" y="172" width="30" height="30" as="geometry" />
        </mxCell>
        <mxCell id="sf9vQHTMIL033kYzhAHr-11" value="&lt;font style=&quot;font-size: 16px;&quot;&gt;9&lt;/font&gt;" style="rounded=0;whiteSpace=wrap;html=1;fillColor=#ffe6cc;strokeColor=#d79b00;" vertex="1" parent="1">
          <mxGeometry x="445" y="172" width="30" height="30" as="geometry" />
        </mxCell>
        <mxCell id="sf9vQHTMIL033kYzhAHr-12" value="&lt;font style=&quot;font-size: 16px;&quot;&gt;16&lt;/font&gt;" style="rounded=0;whiteSpace=wrap;html=1;fillColor=#d5e8d4;strokeColor=#82b366;" vertex="1" parent="1">
          <mxGeometry x="235" y="172" width="30" height="30" as="geometry" />
        </mxCell>
        <mxCell id="sf9vQHTMIL033kYzhAHr-13" value="&lt;font style=&quot;font-size: 16px;&quot;&gt;15&lt;/font&gt;" style="rounded=0;whiteSpace=wrap;html=1;fillColor=#d5e8d4;strokeColor=#82b366;" vertex="1" parent="1">
          <mxGeometry x="265" y="172" width="30" height="30" as="geometry" />
        </mxCell>
        <mxCell id="sf9vQHTMIL033kYzhAHr-14" value="&lt;font style=&quot;font-size: 16px;&quot;&gt;14&lt;/font&gt;" style="rounded=0;whiteSpace=wrap;html=1;fillColor=#ffe6cc;strokeColor=#d79b00;" vertex="1" parent="1">
          <mxGeometry x="295" y="172" width="30" height="30" as="geometry" />
        </mxCell>
        <mxCell id="sf9vQHTMIL033kYzhAHr-15" value="&lt;font style=&quot;font-size: 16px;&quot;&gt;13&lt;/font&gt;" style="rounded=0;whiteSpace=wrap;html=1;fillColor=#ffe6cc;strokeColor=#d79b00;" vertex="1" parent="1">
          <mxGeometry x="325" y="172" width="30" height="30" as="geometry" />
        </mxCell>
        <mxCell id="sf9vQHTMIL033kYzhAHr-32" value="&lt;font style=&quot;font-size: 16px;&quot;&gt;2&lt;/font&gt;" style="rounded=0;whiteSpace=wrap;html=1;fillColor=#ffe6cc;strokeColor=#d79b00;" vertex="1" parent="1">
          <mxGeometry x="655" y="172" width="30" height="30" as="geometry" />
        </mxCell>
        <mxCell id="sf9vQHTMIL033kYzhAHr-35" value="&lt;font color=&quot;#ff0000&quot; style=&quot;font-size: 16px;&quot;&gt;待压缩的向量：&lt;/font&gt;" style="text;strokeColor=none;align=left;fillColor=none;html=1;verticalAlign=middle;whiteSpace=wrap;rounded=0;" vertex="1" parent="1">
          <mxGeometry x="70" y="172" width="131" height="30" as="geometry" />
        </mxCell>
        <mxCell id="sf9vQHTMIL033kYzhAHr-36" value="&lt;font style=&quot;font-size: 16px;&quot;&gt;0&lt;/font&gt;" style="rounded=0;whiteSpace=wrap;html=1;fillColor=#d5e8d4;strokeColor=#82b366;" vertex="1" parent="1">
          <mxGeometry x="595" y="100" width="30" height="30" as="geometry" />
        </mxCell>
        <mxCell id="sf9vQHTMIL033kYzhAHr-37" value="&lt;font style=&quot;font-size: 16px;&quot;&gt;1&lt;/font&gt;" style="rounded=0;whiteSpace=wrap;html=1;fillColor=#ffe6cc;strokeColor=#d79b00;" vertex="1" parent="1">
          <mxGeometry x="475" y="100" width="30" height="30" as="geometry" />
        </mxCell>
        <mxCell id="sf9vQHTMIL033kYzhAHr-38" value="&lt;font style=&quot;font-size: 16px;&quot;&gt;1&lt;/font&gt;" style="rounded=0;whiteSpace=wrap;html=1;fillColor=#ffe6cc;strokeColor=#d79b00;" vertex="1" parent="1">
          <mxGeometry x="503" y="100" width="32" height="30" as="geometry" />
        </mxCell>
        <mxCell id="sf9vQHTMIL033kYzhAHr-39" value="&lt;font style=&quot;font-size: 16px;&quot;&gt;1&lt;/font&gt;" style="rounded=0;whiteSpace=wrap;html=1;fillColor=#ffe6cc;strokeColor=#d79b00;" vertex="1" parent="1">
          <mxGeometry x="535" y="100" width="30" height="30" as="geometry" />
        </mxCell>
        <mxCell id="sf9vQHTMIL033kYzhAHr-40" value="&lt;font style=&quot;font-size: 16px;&quot;&gt;0&lt;/font&gt;" style="rounded=0;whiteSpace=wrap;html=1;fillColor=#d5e8d4;strokeColor=#82b366;" vertex="1" parent="1">
          <mxGeometry x="625" y="100" width="30" height="30" as="geometry" />
        </mxCell>
        <mxCell id="sf9vQHTMIL033kYzhAHr-41" value="&lt;font style=&quot;font-size: 16px;&quot;&gt;1&lt;/font&gt;" style="rounded=0;whiteSpace=wrap;html=1;fillColor=#ffe6cc;strokeColor=#d79b00;" vertex="1" parent="1">
          <mxGeometry x="685" y="100" width="30" height="30" as="geometry" />
        </mxCell>
        <mxCell id="sf9vQHTMIL033kYzhAHr-42" value="&lt;font style=&quot;font-size: 16px;&quot;&gt;1&lt;/font&gt;" style="rounded=0;whiteSpace=wrap;html=1;fillColor=#ffe6cc;strokeColor=#d79b00;" vertex="1" parent="1">
          <mxGeometry x="565" y="100" width="30" height="30" as="geometry" />
        </mxCell>
        <mxCell id="sf9vQHTMIL033kYzhAHr-43" value="&lt;font style=&quot;font-size: 16px;&quot;&gt;0&lt;/font&gt;" style="rounded=0;whiteSpace=wrap;html=1;fillColor=#d5e8d4;strokeColor=#82b366;" vertex="1" parent="1">
          <mxGeometry x="355" y="100" width="30" height="30" as="geometry" />
        </mxCell>
        <mxCell id="sf9vQHTMIL033kYzhAHr-44" value="&lt;span style=&quot;font-size: 16px;&quot;&gt;0&lt;/span&gt;" style="rounded=0;whiteSpace=wrap;html=1;fillColor=#d5e8d4;strokeColor=#82b366;" vertex="1" parent="1">
          <mxGeometry x="385" y="100" width="30" height="30" as="geometry" />
        </mxCell>
        <mxCell id="sf9vQHTMIL033kYzhAHr-45" value="&lt;font style=&quot;font-size: 16px;&quot;&gt;0&lt;/font&gt;" style="rounded=0;whiteSpace=wrap;html=1;fillColor=#d5e8d4;strokeColor=#82b366;" vertex="1" parent="1">
          <mxGeometry x="415" y="100" width="30" height="30" as="geometry" />
        </mxCell>
        <mxCell id="sf9vQHTMIL033kYzhAHr-46" value="&lt;font style=&quot;font-size: 16px;&quot;&gt;1&lt;/font&gt;" style="rounded=0;whiteSpace=wrap;html=1;fillColor=#ffe6cc;strokeColor=#d79b00;" vertex="1" parent="1">
          <mxGeometry x="445" y="100" width="30" height="30" as="geometry" />
        </mxCell>
        <mxCell id="sf9vQHTMIL033kYzhAHr-47" value="&lt;font style=&quot;font-size: 16px;&quot;&gt;0&lt;/font&gt;" style="rounded=0;whiteSpace=wrap;html=1;fillColor=#d5e8d4;strokeColor=#82b366;" vertex="1" parent="1">
          <mxGeometry x="235" y="100" width="30" height="30" as="geometry" />
        </mxCell>
        <mxCell id="sf9vQHTMIL033kYzhAHr-48" value="&lt;font style=&quot;font-size: 16px;&quot;&gt;0&lt;/font&gt;" style="rounded=0;whiteSpace=wrap;html=1;fillColor=#d5e8d4;strokeColor=#82b366;" vertex="1" parent="1">
          <mxGeometry x="265" y="100" width="30" height="30" as="geometry" />
        </mxCell>
        <mxCell id="sf9vQHTMIL033kYzhAHr-49" value="&lt;font style=&quot;font-size: 16px;&quot;&gt;1&lt;/font&gt;" style="rounded=0;whiteSpace=wrap;html=1;fillColor=#ffe6cc;strokeColor=#d79b00;" vertex="1" parent="1">
          <mxGeometry x="295" y="100" width="30" height="30" as="geometry" />
        </mxCell>
        <mxCell id="sf9vQHTMIL033kYzhAHr-50" value="&lt;font style=&quot;font-size: 16px;&quot;&gt;1&lt;/font&gt;" style="rounded=0;whiteSpace=wrap;html=1;fillColor=#ffe6cc;strokeColor=#d79b00;" vertex="1" parent="1">
          <mxGeometry x="325" y="100" width="30" height="30" as="geometry" />
        </mxCell>
        <mxCell id="sf9vQHTMIL033kYzhAHr-67" value="&lt;font style=&quot;font-size: 16px;&quot;&gt;1&lt;/font&gt;" style="rounded=0;whiteSpace=wrap;html=1;fillColor=#ffe6cc;strokeColor=#d79b00;" vertex="1" parent="1">
          <mxGeometry x="653" y="100" width="32" height="30" as="geometry" />
        </mxCell>
        <mxCell id="sf9vQHTMIL033kYzhAHr-69" value="&lt;font color=&quot;#ff0000&quot; style=&quot;font-size: 16px;&quot;&gt;mask 值:&lt;br&gt;(0x31F3)&lt;/font&gt;" style="text;strokeColor=none;align=left;fillColor=none;html=1;verticalAlign=middle;whiteSpace=wrap;rounded=0;" vertex="1" parent="1">
          <mxGeometry x="90" y="94" width="111" height="30" as="geometry" />
        </mxCell>
        <mxCell id="sf9vQHTMIL033kYzhAHr-77" value="&lt;font style=&quot;font-size: 16px;&quot;&gt;6&lt;/font&gt;" style="rounded=0;whiteSpace=wrap;html=1;fillColor=#ffe6cc;strokeColor=#d79b00;" vertex="1" parent="1">
          <mxGeometry x="595" y="242" width="30" height="30" as="geometry" />
        </mxCell>
        <mxCell id="sf9vQHTMIL033kYzhAHr-78" value="&lt;font style=&quot;font-size: 16px;&quot;&gt;13&lt;/font&gt;" style="rounded=0;whiteSpace=wrap;html=1;fillColor=#ffe6cc;strokeColor=#d79b00;" vertex="1" parent="1">
          <mxGeometry x="475" y="242" width="30" height="30" as="geometry" />
        </mxCell>
        <mxCell id="sf9vQHTMIL033kYzhAHr-79" value="&lt;font style=&quot;font-size: 16px;&quot;&gt;9&lt;/font&gt;" style="rounded=0;whiteSpace=wrap;html=1;fillColor=#ffe6cc;strokeColor=#d79b00;" vertex="1" parent="1">
          <mxGeometry x="505" y="242" width="30" height="30" as="geometry" />
        </mxCell>
        <mxCell id="sf9vQHTMIL033kYzhAHr-80" value="&lt;span style=&quot;font-size: 16px;&quot;&gt;8&lt;/span&gt;" style="rounded=0;whiteSpace=wrap;html=1;fillColor=#ffe6cc;strokeColor=#d79b00;" vertex="1" parent="1">
          <mxGeometry x="535" y="242" width="30" height="30" as="geometry" />
        </mxCell>
        <mxCell id="sf9vQHTMIL033kYzhAHr-81" value="&lt;font style=&quot;font-size: 16px;&quot;&gt;5&lt;/font&gt;" style="rounded=0;whiteSpace=wrap;html=1;fillColor=#ffe6cc;strokeColor=#d79b00;" vertex="1" parent="1">
          <mxGeometry x="625" y="242" width="30" height="30" as="geometry" />
        </mxCell>
        <mxCell id="sf9vQHTMIL033kYzhAHr-82" value="&lt;font style=&quot;font-size: 16px;&quot;&gt;1&lt;/font&gt;" style="rounded=0;whiteSpace=wrap;html=1;fillColor=#ffe6cc;strokeColor=#d79b00;" vertex="1" parent="1">
          <mxGeometry x="685" y="242" width="30" height="30" as="geometry" />
        </mxCell>
        <mxCell id="sf9vQHTMIL033kYzhAHr-83" value="&lt;font style=&quot;font-size: 16px;&quot;&gt;7&lt;/font&gt;" style="rounded=0;whiteSpace=wrap;html=1;fillColor=#ffe6cc;strokeColor=#d79b00;" vertex="1" parent="1">
          <mxGeometry x="565" y="242" width="30" height="30" as="geometry" />
        </mxCell>
        <mxCell id="sf9vQHTMIL033kYzhAHr-84" value="&lt;font style=&quot;font-size: 16px;&quot;&gt;0&lt;/font&gt;" style="rounded=0;whiteSpace=wrap;html=1;fillColor=#ffe6cc;strokeColor=#d79b00;" vertex="1" parent="1">
          <mxGeometry x="355" y="242" width="30" height="30" as="geometry" />
        </mxCell>
        <mxCell id="sf9vQHTMIL033kYzhAHr-85" value="&lt;span style=&quot;font-size: 16px;&quot;&gt;0&lt;/span&gt;" style="rounded=0;whiteSpace=wrap;html=1;fillColor=#ffe6cc;strokeColor=#d79b00;" vertex="1" parent="1">
          <mxGeometry x="385" y="242" width="30" height="30" as="geometry" />
        </mxCell>
        <mxCell id="sf9vQHTMIL033kYzhAHr-86" value="&lt;font style=&quot;font-size: 16px;&quot;&gt;0&lt;/font&gt;" style="rounded=0;whiteSpace=wrap;html=1;fillColor=#ffe6cc;strokeColor=#d79b00;" vertex="1" parent="1">
          <mxGeometry x="415" y="242" width="30" height="30" as="geometry" />
        </mxCell>
        <mxCell id="sf9vQHTMIL033kYzhAHr-87" value="&lt;font style=&quot;font-size: 16px;&quot;&gt;14&lt;/font&gt;" style="rounded=0;whiteSpace=wrap;html=1;fillColor=#ffe6cc;strokeColor=#d79b00;" vertex="1" parent="1">
          <mxGeometry x="445" y="242" width="30" height="30" as="geometry" />
        </mxCell>
        <mxCell id="sf9vQHTMIL033kYzhAHr-88" value="&lt;font style=&quot;font-size: 16px;&quot;&gt;0&lt;/font&gt;" style="rounded=0;whiteSpace=wrap;html=1;fillColor=#ffe6cc;strokeColor=#d79b00;" vertex="1" parent="1">
          <mxGeometry x="235" y="242" width="30" height="30" as="geometry" />
        </mxCell>
        <mxCell id="sf9vQHTMIL033kYzhAHr-89" value="&lt;font style=&quot;font-size: 16px;&quot;&gt;0&lt;/font&gt;" style="rounded=0;whiteSpace=wrap;html=1;fillColor=#ffe6cc;strokeColor=#d79b00;" vertex="1" parent="1">
          <mxGeometry x="265" y="242" width="30" height="30" as="geometry" />
        </mxCell>
        <mxCell id="sf9vQHTMIL033kYzhAHr-90" value="&lt;font style=&quot;font-size: 16px;&quot;&gt;0&lt;/font&gt;" style="rounded=0;whiteSpace=wrap;html=1;fillColor=#ffe6cc;strokeColor=#d79b00;" vertex="1" parent="1">
          <mxGeometry x="295" y="242" width="30" height="30" as="geometry" />
        </mxCell>
        <mxCell id="sf9vQHTMIL033kYzhAHr-91" value="&lt;font style=&quot;font-size: 16px;&quot;&gt;0&lt;/font&gt;" style="rounded=0;whiteSpace=wrap;html=1;fillColor=#ffe6cc;strokeColor=#d79b00;" vertex="1" parent="1">
          <mxGeometry x="325" y="242" width="30" height="30" as="geometry" />
        </mxCell>
        <mxCell id="sf9vQHTMIL033kYzhAHr-92" value="&lt;font style=&quot;font-size: 16px;&quot;&gt;2&lt;/font&gt;" style="rounded=0;whiteSpace=wrap;html=1;fillColor=#ffe6cc;strokeColor=#d79b00;" vertex="1" parent="1">
          <mxGeometry x="655" y="242" width="30" height="30" as="geometry" />
        </mxCell>
        <mxCell id="sf9vQHTMIL033kYzhAHr-93" value="&lt;font color=&quot;#ff0000&quot; style=&quot;font-size: 16px;&quot;&gt;压缩后的向量：&lt;/font&gt;" style="text;strokeColor=none;align=left;fillColor=none;html=1;verticalAlign=middle;whiteSpace=wrap;rounded=0;" vertex="1" parent="1">
          <mxGeometry x="70" y="242" width="131" height="30" as="geometry" />
        </mxCell>
      </root>
    </mxGraphModel>
  </diagram>
</mxfile>
